<svg id="visual" viewBox="0 0 960 540" width="960" height="540" xmlns="http://www.w3.org/2000/svg" xmlns:xlink="http://www.w3.org/1999/xlink" version="1.1"><rect x="0" y="0" width="960" height="540" fill="#FCAF3C"></rect><path d="M0 389L17.8 381.5C35.7 374 71.3 359 106.8 365.3C142.3 371.7 177.7 399.3 213.2 408.5C248.7 417.7 284.3 408.3 320 408.7C355.7 409 391.3 419 426.8 411.3C462.3 403.7 497.7 378.3 533.2 379.5C568.7 380.7 604.3 408.3 640 409.2C675.7 410 711.3 384 746.8 374.8C782.3 365.7 817.7 373.3 853.2 373C888.7 372.7 924.3 364.3 942.2 360.2L960 356L960 541L942.2 541C924.3 541 888.7 541 853.2 541C817.7 541 782.3 541 746.8 541C711.3 541 675.7 541 640 541C604.3 541 568.7 541 533.2 541C497.7 541 462.3 541 426.8 541C391.3 541 355.7 541 320 541C284.3 541 248.7 541 213.2 541C177.7 541 142.3 541 106.8 541C71.3 541 35.7 541 17.8 541L0 541Z" fill="#F7770F" stroke-linecap="round" stroke-linejoin="miter"></path></svg>